# xmcd
# Track frame offsets:
# 150
# 13803
# 30951
# 46280
# 58672
# 74167
# 89487
# 102370
# 121273
# 135592
# 149589
# 168901
#
# Disc length: 2435 seconds
# Revision: 0
# Processed by: cddbd v1.4PL0 Copyright (c) Steve Scherf et al.
# Submitted via: VisiTrax 2.9.5.180 - For more info visit www.synapsa.com
#
DISCID=aa09810c
DTITLE=Don Walser - I'll Hold You In My Heart
DYEAR=2000
DGENRE=Pure Texas Country
TTITLE0=Yodeling The Blues
TTITLE1=Sweet Thang and Cisco
TTITLE2=I'll Hold You In My Heart ('Til I Can Hold You In MY Arms)
TTITLE3=Rock-A-Billy Rage
TTITLE4=El Paso Cowboy
TTITLE5=If You Don't Want To See Me Going (Turn and Look the Other Way)
TTITLE6=Buck and Merle
TTITLE7=Sweet Kind of Love
TTITLE8=When It's Springtime in the Rockies
TTITLE9=Cinderella
TTITLE10=Hungry Eyes
TTITLE11=Country Gold
EXTD=Valley Entertainment
EXTT0=
EXTT1=
EXTT2=
EXTT3=
EXTT4=
EXTT5=
EXTT6=
EXTT7=
EXTT8=
EXTT9=
EXTT10=
EXTT11=
PLAYORDER=
